<svg xmlns="http://www.w3.org/2000/svg" viewBox="0 0 990.64 237.61"><defs><style>.cls-1{fill:#fccf14;}.cls-2{fill:#1e1d4e;}</style></defs><g id="Livello_2" data-name="Livello 2"><g id="Livello_1-2" data-name="Livello 1"><rect class="cls-1" x="234.16" y="109.13" width="671.29" height="93.97" transform="translate(-7.69 31.44) rotate(-3.14)"/><path class="cls-1" d="M18.27,52.62l35.8,12.62V82.83L0,59.91V45.09L54.07,22.17V39.75Z"/><path class="cls-1" d="M74.73,99.28H61.22L94.88,0h13.5Z"/><path class="cls-2" d="M174.88,0l23.49,66.31L221.73,0h24.74V91.43h-18.9v-25l1.88-43.14L204.77,91.43H191.84L167.22,23.36l1.88,43.08v25H150.27V0Z"/><path class="cls-2" d="M301.1,91.43a19.84,19.84,0,0,1-1.82-6.09q-6.6,7.35-17.15,7.34-10,0-16.54-5.77A18.56,18.56,0,0,1,259,72.34q0-10.8,8-16.58t23.14-5.84h8.35V46a11.23,11.23,0,0,0-2.41-7.54q-2.43-2.82-7.63-2.82a10.82,10.82,0,0,0-7.19,2.19,7.48,7.48,0,0,0-2.61,6H260.53A18.28,18.28,0,0,1,264.17,33a24.09,24.09,0,0,1,10.3-7.88,37.46,37.46,0,0,1,14.95-2.86q12.56,0,19.94,6.31t7.37,17.74V75.73c0,6.45.95,11.32,2.7,14.63v1.07Zm-15-12.62A15.66,15.66,0,0,0,293.5,77a11.81,11.81,0,0,0,5-4.81V60.53h-6.78q-13.62,0-14.5,9.42L277.17,71a7.28,7.28,0,0,0,2.39,5.59A9.3,9.3,0,0,0,286.09,78.81Z"/><path class="cls-2" d="M368.85,40.5a50,50,0,0,0-6.53-.5q-10.29,0-13.5,7V91.43H330.67V23.48h17.15l.5,8.11q5.46-9.36,15.13-9.36a18.78,18.78,0,0,1,5.65.82Z"/><path class="cls-2" d="M404.65,78.05a11.91,11.91,0,0,0,8.16-2.76,9.67,9.67,0,0,0,3.26-7.35h17a23.27,23.27,0,0,1-3.77,12.66,24.82,24.82,0,0,1-10.14,8.91A31.65,31.65,0,0,1,405,92.68q-14.56,0-23-9.26t-8.42-25.59V56.64q0-15.69,8.35-25t22.92-9.36q12.75,0,20.44,7.25t7.82,19.31h-17a12.48,12.48,0,0,0-3.26-8.62,10.88,10.88,0,0,0-8.29-3.31q-6.34,0-9.58,4.62t-3.23,15v1.89q0,10.5,3.2,15.09T404.65,78.05Z"/><path class="cls-2" d="M440.63,56.83a40.21,40.21,0,0,1,3.89-18,28.5,28.5,0,0,1,11.21-12.25,32.7,32.7,0,0,1,17-4.33q13.74,0,22.44,8.41t9.71,22.86l.12,4.65q0,15.63-8.73,25.08t-23.42,9.45q-14.7,0-23.45-9.41t-8.76-25.62Zm18.14,1.29q0,9.67,3.65,14.81a13.09,13.09,0,0,0,20.72.06q3.71-5.05,3.7-16.19,0-9.49-3.7-14.72a12,12,0,0,0-10.42-5.22,11.84,11.84,0,0,0-10.3,5.19Q458.78,47.24,458.77,58.12Z"/><path class="cls-2" d="M265.43,165.64v35.79H253.37V110h33.72q15,0,23.52,7.66t8.51,20.28q0,13.32-8.32,20.51T287,165.64Zm0-9.86h21.66q9.68,0,14.82-4.56T307.06,138q0-8.17-5.15-13.09t-14.12-5.09H265.43Z"/><path class="cls-2" d="M373.94,201.43a24.17,24.17,0,0,1-1.63-7.16A25.92,25.92,0,0,1,353,202.68q-10.05,0-16.49-5.68a18.38,18.38,0,0,1-6.43-14.41q0-10.6,8.07-16.48t22.7-5.88h11.3V154.9q0-6.09-3.64-9.7t-10.74-3.61a16.91,16.91,0,0,0-10.43,3.14q-4.2,3.14-4.2,7.59H331.43A16,16,0,0,1,335,142.5a24.67,24.67,0,0,1,9.79-7.51,33,33,0,0,1,13.6-2.76q11.74,0,18.4,5.87t6.91,16.17v31.27q0,9.36,2.38,14.88v1Zm-19.28-8.86A20.44,20.44,0,0,0,365,189.75a17.11,17.11,0,0,0,7.1-7.35V168.46H363q-21.35,0-21.35,12.5a10.58,10.58,0,0,0,3.65,8.54A14,14,0,0,0,354.66,192.57Z"/><path class="cls-2" d="M459.34,168.21q0,15.51-7.1,25T433,202.68q-12.37,0-19.47-7.85v32.72H402V133.48h10.61l.56,7.54q7.1-8.79,19.72-8.79,12.24,0,19.37,9.23t7.13,25.68Zm-11.62-1.32q0-11.49-4.9-18.15a15.77,15.77,0,0,0-13.43-6.65q-10.56,0-15.83,9.35v32.47q5.22,9.28,15.95,9.29a15.7,15.7,0,0,0,13.28-6.62Q447.73,180,447.72,166.89Z"/><path class="cls-2" d="M531.49,168.21q0,15.51-7.09,25a22.76,22.76,0,0,1-19.22,9.48q-12.37,0-19.47-7.85v32.72H474.1V133.48h10.61l.56,7.54q7.1-8.79,19.72-8.79,12.24,0,19.37,9.23t7.13,25.68Zm-11.62-1.32q0-11.49-4.89-18.15a15.8,15.8,0,0,0-13.44-6.65q-10.56,0-15.83,9.35v32.47q5.22,9.28,16,9.29a15.7,15.7,0,0,0,13.28-6.62Q519.88,180,519.87,166.89Z"/><path class="cls-2" d="M588.19,201.43a24.5,24.5,0,0,1-1.63-7.16,25.92,25.92,0,0,1-19.34,8.41q-10.05,0-16.48-5.68a18.36,18.36,0,0,1-6.44-14.41q0-10.6,8.07-16.48t22.7-5.88h11.3V154.9q0-6.09-3.64-9.7T572,141.59a16.88,16.88,0,0,0-10.42,3.14q-4.22,3.14-4.21,7.59H545.68a16,16,0,0,1,3.61-9.82,24.63,24.63,0,0,1,9.8-7.51,33,33,0,0,1,13.59-2.76q11.75,0,18.4,5.87T598,154.27v31.27q0,9.36,2.39,14.88v1Zm-19.27-8.86a20.46,20.46,0,0,0,10.36-2.82,17.09,17.09,0,0,0,7.09-7.35V168.46h-9.1q-21.36,0-21.35,12.5a10.57,10.57,0,0,0,3.64,8.54A14,14,0,0,0,568.92,192.57Z"/><path class="cls-2" d="M628.82,201.43H617.2V105h11.62Z"/><path class="cls-2" d="M689.35,201.43a24.84,24.84,0,0,1-1.63-7.16,25.9,25.9,0,0,1-19.34,8.41q-10.05,0-16.48-5.68a18.39,18.39,0,0,1-6.44-14.41q0-10.6,8.07-16.48t22.7-5.88h11.3V154.9q0-6.09-3.64-9.7t-10.74-3.61a16.88,16.88,0,0,0-10.42,3.14c-2.8,2.09-4.21,4.62-4.21,7.59H646.84a16.06,16.06,0,0,1,3.61-9.82,24.7,24.7,0,0,1,9.8-7.51,33,33,0,0,1,13.6-2.76q11.73,0,18.39,5.87t6.91,16.17v31.27q0,9.36,2.39,14.88v1Zm-19.27-8.86a20.46,20.46,0,0,0,10.36-2.82,17.09,17.09,0,0,0,7.09-7.35V168.46h-9.1q-21.34,0-21.35,12.5a10.57,10.57,0,0,0,3.64,8.54A14,14,0,0,0,670.08,192.57Z"/><path class="cls-2" d="M750.2,143.91a35.12,35.12,0,0,0-5.71-.44q-11.43,0-15.51,9.73v48.23H717.36v-68h11.3l.19,7.85q5.71-9.11,16.2-9.1a11.81,11.81,0,0,1,5.15.88Z"/><path class="cls-2" d="M756.86,166.89q0-15.63,7.41-25.15a23.44,23.44,0,0,1,19.4-9.51q11.94,0,18.9,8.16V105h11.62v96.45H803.52l-.57-7.29q-7,8.55-19.4,8.54-11.81,0-19.25-9.67t-7.44-25.24Zm11.62,1.32q0,11.55,4.77,18.09a15.43,15.43,0,0,0,13.19,6.52q11,0,16.13-9.92V151.7q-5.21-9.62-16-9.61a15.51,15.51,0,0,0-13.31,6.59Q768.48,155.28,768.48,168.21Z"/><path class="cls-2" d="M829.14,166.83a40.08,40.08,0,0,1,3.92-18A29.29,29.29,0,0,1,844,136.56a29.7,29.7,0,0,1,16-4.33q13.88,0,22.45,9.61T891,167.39v.82a40.51,40.51,0,0,1-3.8,17.8,28.86,28.86,0,0,1-10.86,12.28,30.12,30.12,0,0,1-16.24,4.39q-13.82,0-22.38-9.6t-8.57-25.43Zm11.67,1.38q0,11.31,5.25,18.15a17.77,17.77,0,0,0,28.1-.1q5.21-6.93,5.21-19.43,0-11.18-5.31-18.12a17.63,17.63,0,0,0-28-.09Q840.81,155.46,840.81,168.21Z"/><path class="cls-1" d="M978.52,160.61,937,144.35V132.42l53.62,23.73v9.17L937,189.12V177.06Z"/><path class="cls-2" d="M527.39,232.3l2.37-12.5h3.6l-3.89,17.57h-3.65L523,225.62l-2.86,11.75h-3.64l-3.9-17.57h3.61l2.38,12.48,2.89-12.48h3.07Z"/><path class="cls-2" d="M545.89,229.76h-6.95v4.7h8.16v2.91H535.32V219.8h11.75v2.93h-8.13v4.19h6.95Z"/><path class="cls-2" d="M549.22,237.37V219.8h6.16a8.05,8.05,0,0,1,4.85,1.23,4.18,4.18,0,0,1,1.65,3.59,4,4,0,0,1-.66,2.27,3.81,3.81,0,0,1-1.85,1.44,3.72,3.72,0,0,1,2.13,1.37,4,4,0,0,1,.78,2.51,4.64,4.64,0,0,1-1.62,3.84,7.29,7.29,0,0,1-4.61,1.32Zm3.62-10.21h2.68c1.83,0,2.74-.76,2.74-2.18a2,2,0,0,0-.69-1.72,3.68,3.68,0,0,0-2.19-.53h-2.54Zm0,2.56v4.74h3.1a3,3,0,0,0,2-.61,2.07,2.07,0,0,0,.72-1.68c0-1.61-.83-2.42-2.5-2.45Z"/><path class="cls-2" d="M571.15,237.37V219.8h5.4a8.18,8.18,0,0,1,4.15,1,7.2,7.2,0,0,1,2.85,3,9.14,9.14,0,0,1,1,4.38V229a9.18,9.18,0,0,1-1,4.35,7.17,7.17,0,0,1-2.84,3,8.28,8.28,0,0,1-4.14,1.06Zm3.62-14.64v11.73h1.75a4,4,0,0,0,3.25-1.38,6.3,6.3,0,0,0,1.14-4v-.93a6.36,6.36,0,0,0-1.11-4.06,3.9,3.9,0,0,0-3.25-1.39Z"/><path class="cls-2" d="M597.78,229.76h-6.95v4.7H599v2.91H587.21V219.8H599v2.93h-8.13v4.19h6.95Z"/><path class="cls-2" d="M607.61,233l4-13.22h4l-6.12,17.57h-3.78l-6.09-17.57h4Z"/><path class="cls-2" d="M627.84,229.76h-7v4.7h8.16v2.91H617.27V219.8H629v2.93h-8.13v4.19h7Z"/><path class="cls-2" d="M634.79,234.46h7.69v2.91H631.17V219.8h3.62Z"/><path class="cls-2" d="M658.22,229a10.57,10.57,0,0,1-.92,4.54,6.92,6.92,0,0,1-2.62,3,7.77,7.77,0,0,1-7.82,0,6.93,6.93,0,0,1-2.65-3,10.25,10.25,0,0,1-1-4.48v-.87a10.41,10.41,0,0,1,.94-4.56,6.88,6.88,0,0,1,2.64-3,7.72,7.72,0,0,1,7.81,0,6.88,6.88,0,0,1,2.64,3,10.54,10.54,0,0,1,.94,4.55Zm-3.67-.8a7.4,7.4,0,0,0-1-4.2,3.5,3.5,0,0,0-5.64,0,7.34,7.34,0,0,0-1,4.16V229a7.47,7.47,0,0,0,1,4.17,3.46,3.46,0,0,0,5.65.06,7.5,7.5,0,0,0,1-4.17Z"/><path class="cls-2" d="M664.47,231.18v6.19h-3.62V219.8h6.85a7.82,7.82,0,0,1,3.48.73,5.2,5.2,0,0,1,2.31,2.05,5.74,5.74,0,0,1,.81,3,5,5,0,0,1-1.77,4.07,7.29,7.29,0,0,1-4.89,1.49Zm0-2.93h3.23a3.17,3.17,0,0,0,2.19-.68,2.43,2.43,0,0,0,.76-1.93,2.91,2.91,0,0,0-.76-2.08,2.84,2.84,0,0,0-2.1-.83h-3.32Z"/><path class="cls-2" d="M687.36,229.76h-7v4.7h8.16v2.91H676.79V219.8h11.75v2.93h-8.13v4.19h7Z"/><path class="cls-2" d="M697.2,230.94h-2.89v6.43h-3.62V219.8h6.53a7.38,7.38,0,0,1,4.8,1.39,4.77,4.77,0,0,1,1.69,3.92,5.4,5.4,0,0,1-.78,3,5.2,5.2,0,0,1-2.36,1.91l3.81,7.18v.17h-3.89ZM694.31,228h2.92a2.94,2.94,0,0,0,2.11-.7,2.47,2.47,0,0,0,.75-1.91,2.63,2.63,0,0,0-.7-2,2.93,2.93,0,0,0-2.17-.72h-2.91Z"/><path class="cls-2" d="M722.54,233.75h-6.35L715,237.37h-3.85l6.54-17.57H721l6.58,17.57h-3.85Zm-5.37-2.93h4.39l-2.21-6.58Z"/><path class="cls-2" d="M743.53,237.37h-3.62l-7-11.56v11.56h-3.62V219.8h3.62l7.06,11.59V219.8h3.6Z"/><path class="cls-2" d="M746.7,237.37V219.8h5.4a8.18,8.18,0,0,1,4.15,1,7.2,7.2,0,0,1,2.85,3,9.14,9.14,0,0,1,1,4.38V229a9.18,9.18,0,0,1-1,4.35,7.17,7.17,0,0,1-2.84,3,8.28,8.28,0,0,1-4.14,1.06Zm3.62-14.64v11.73h1.75a3.94,3.94,0,0,0,3.24-1.38,6.3,6.3,0,0,0,1.15-4v-.93a6.36,6.36,0,0,0-1.11-4.06,3.9,3.9,0,0,0-3.25-1.39Z"/><path class="cls-2" d="M768.91,237.37V219.8h5.41a8.21,8.21,0,0,1,4.15,1,7.26,7.26,0,0,1,2.85,3,9.25,9.25,0,0,1,1,4.38V229a9.18,9.18,0,0,1-1,4.35,7.17,7.17,0,0,1-2.84,3,8.33,8.33,0,0,1-4.14,1.06Zm3.62-14.64v11.73h1.75a4,4,0,0,0,3.25-1.38,6.3,6.3,0,0,0,1.15-4v-.93a6.36,6.36,0,0,0-1.11-4.06,3.91,3.91,0,0,0-3.25-1.39Z"/><path class="cls-2" d="M795.55,229.76H788.6v4.7h8.15v2.91H785V219.8h11.75v2.93H788.6v4.19h6.95Z"/><path class="cls-2" d="M808,232.76a1.85,1.85,0,0,0-.72-1.57,9.7,9.7,0,0,0-2.61-1.16,19,19,0,0,1-3-1.2c-2-1.08-3-2.53-3-4.36a4.22,4.22,0,0,1,.8-2.54,5.24,5.24,0,0,1,2.3-1.74,8.67,8.67,0,0,1,3.38-.63,8,8,0,0,1,3.35.68,5.38,5.38,0,0,1,2.29,1.93,5.06,5.06,0,0,1,.81,2.82H808a2.38,2.38,0,0,0-.76-1.88,3.16,3.16,0,0,0-2.13-.67A3.31,3.31,0,0,0,803,223a1.75,1.75,0,0,0-.73,1.47,1.68,1.68,0,0,0,.86,1.44,9.57,9.57,0,0,0,2.54,1.09,10.93,10.93,0,0,1,4.5,2.3,4.6,4.6,0,0,1,1.41,3.43,4.24,4.24,0,0,1-1.72,3.58,7.59,7.59,0,0,1-4.65,1.29,8.88,8.88,0,0,1-3.69-.74,5.79,5.79,0,0,1-2.54-2,5.16,5.16,0,0,1-.88-3h3.63q0,2.9,3.48,2.9a3.41,3.41,0,0,0,2-.52A1.71,1.71,0,0,0,808,232.76Z"/><path class="cls-2" d="M817.92,237.37H814.3V219.8h3.62Z"/><path class="cls-2" d="M835.18,235.15a6.31,6.31,0,0,1-2.77,1.82,11.57,11.57,0,0,1-3.95.64,7.86,7.86,0,0,1-4-1,6.66,6.66,0,0,1-2.66-2.89,10.29,10.29,0,0,1-1-4.46v-1.19a10.88,10.88,0,0,1,.89-4.56,6.53,6.53,0,0,1,2.56-2.94,8.42,8.42,0,0,1,8.8.47,6.35,6.35,0,0,1,2.09,4.34h-3.53a3.5,3.5,0,0,0-1.06-2.21,3.4,3.4,0,0,0-2.28-.7,3.19,3.19,0,0,0-2.81,1.39,7.33,7.33,0,0,0-1,4.13v1.12a6.93,6.93,0,0,0,1.05,4.17,3.61,3.61,0,0,0,3.08,1.42,4,4,0,0,0,2.91-.87v-3h-3.3v-2.67h6.92Z"/><path class="cls-2" d="M852.4,237.37h-3.62l-7-11.56v11.56h-3.62V219.8h3.62l7.06,11.59V219.8h3.61Z"/><path class="cls-2" d="M866.13,229.76h-7v4.7h8.16v2.91H855.56V219.8h11.75v2.93h-8.13v4.19h7Z"/><path class="cls-2" d="M876,230.94h-2.89v6.43h-3.62V219.8H876a7.38,7.38,0,0,1,4.8,1.39,4.77,4.77,0,0,1,1.69,3.92,5.48,5.48,0,0,1-.77,3,5.31,5.31,0,0,1-2.36,1.91l3.8,7.18v.17h-3.89ZM873.08,228H876a3,3,0,0,0,2.12-.7,2.5,2.5,0,0,0,.74-1.91,2.63,2.63,0,0,0-.7-2,2.93,2.93,0,0,0-2.17-.72h-2.91Z"/></g></g></svg>